
        <svg xmlns="http://www.w3.org/2000/svg" xmlns:xlink="http://www.w3.org/1999/xlink" version="1.1" width="3740.2912089375495" 
        height="2692.6576748807324" viewBox="0 0 3740.2912089375495 2692.6576748807324">
			
			<g transform="scale(37.014560446877475) translate(10, 10)">
				<defs id="SvgjsDefs2132"></defs><g id="SvgjsG2133" featureKey="sloganFeature-0" transform="matrix(0.10778031498193741,0,0,0.10778031498193741,4.967665910723049,44.381341018170055)" fill="#07689f"><path d="M1.78 16.48 l0 -5.32 l-1.48 0 l0 -0.82 l1.48 0 l0 -3.32 l2.18 -1.04 l0 4.36 l1.44 0 l0 0.82 l-1.44 0 l0 5.2 c0 0.78 0.3 1.46 0.68 1.96 c0.22 0.3 0.48 0.52 0.76 0.68 l0 1.1 c-0.46 -0.02 -0.94 -0.12 -1.44 -0.32 c-1.16 -0.48 -2.18 -1.46 -2.18 -3.3 z M16.373 20 l0 -0.54 c0.62 -0.74 1.02 -1.68 1.02 -2.62 l0 -7.66 c0 -0.96 -0.4 -1.92 -1.02 -2.62 l0 -0.56 l4.24 0 l0 0.56 c-0.68 0.7 -1.06 1.66 -1.06 2.62 l0 7.66 c0 0.94 0.38 1.88 1.06 2.62 l0 0.54 l-4.24 0 z M32.146 20.02 l0 -10.8 c0 -0.98 -0.38 -1.92 -1.04 -2.64 l0 -0.58 l3.2 0 l0 5.12 c0.78 -0.5 1.76 -0.84 2.78 -0.84 c3.2 0 5.2 2.18 5.2 4.9 c0 2.68 -2.46 4.84 -5.2 4.84 c-0.54 0 -1.02 -0.06 -1.5 -0.22 c-1.14 -0.4 -2.38 -0.26 -3.44 0.22 z M34.306000000000004 15.84 c0.68 2.24 2.36 3.74 4.02 3.36 c1.62 -0.38 2.42 -2.48 1.74 -4.72 c-0.68 -2.2 -2.52 -3.66 -4.18 -3.3 c-1.64 0.36 -2.26 2.46 -1.58 4.66 z M53.059000000000005 20 l0 -0.54 c0.56 -0.7 0.86 -1.66 0.86 -2.62 l0 -3.32 c0 -0.98 -0.3 -1.92 -0.86 -2.62 l0 -0.56 l2.76 0 l0 6.52 c0 0.94 0.32 1.9 0.9 2.6 l0 0.54 l-3.66 0 z M54.599000000000004 9.46 c-0.76 0 -1.38 -0.64 -1.38 -1.4 c0 -0.78 0.62 -1.4 1.38 -1.4 c0.78 0 1.4 0.62 1.4 1.4 c0 0.76 -0.62 1.4 -1.4 1.4 z M92.68500000000002 17.48 l1.36 0 c-0.88 1.6 -2.58 2.72 -4.52 2.72 c-2.84 0 -5.56 -1.9 -5.56 -4.98 c0 -3.38 2.72 -5.04 5.56 -5.04 l0.5 0 c1.7 0 3.28 1.1 3.96 2.66 l-2.18 0 c-0.82 -1.26 -1.92 -1.94 -3.02 -1.94 c-1.56 0 -2.46 1.38 -2.46 3.14 c0 3.04 2.14 5.64 4 5.64 c1.2 0 2.08 -0.94 2.36 -2.2 z M104.89800000000001 13 c0 -4.1 3.4 -7.26 7.58 -7.26 c4.22 0 7.6 3.16 7.6 7.26 c0 4.12 -3.38 7.26 -7.6 7.26 c-4.18 0 -7.58 -3.14 -7.58 -7.26 z M107.93800000000002 14.1 c1.1 3.64 3.86 5.9 6.52 5.28 c2.7 -0.62 3.98 -3.88 2.9 -7.5 c-1.08 -3.64 -4.16 -5.8 -6.84 -5.18 s-3.68 3.8 -2.58 7.4 z M131.05100000000002 20 l0 -0.54 c0.66 -0.7 1.02 -1.66 1.02 -2.62 l0 -3.32 c0 -0.98 -0.36 -1.92 -1.02 -2.62 l0 -0.56 l3.18 0 l0 1.12 c0.68 -0.38 1.46 -0.62 2.18 -0.62 c2.34 0 3.62 1.42 3.62 4.88 l0 1.12 c0 0.96 0.38 1.92 1.06 2.62 l0 0.54 l-4.28 0 l0 -0.54 c0.68 -0.7 1.06 -1.66 1.06 -2.62 l0 -2.42 c0 -1.56 -1.42 -3.1 -2.82 -2.72 c-0.5 0.14 -0.82 0.62 -0.82 1.14 l0 4.02 c0 0.94 0.4 1.9 1.04 2.6 l0 0.54 l-4.22 0 z M152.00400000000002 19.18 l0 -1.42 l0.66 0 l0.78 0.84 c0.52 0.56 1.14 0.78 2.02 0.76 c0.8 0 2.02 -0.3 2.02 -1.04 c0 -0.94 -1.82 -2.08 -2.9 -2.72 c-0.94 -0.54 -2.58 -1.48 -2.58 -2.62 c0 -2.18 2.54 -2.72 3.28 -2.72 c0.94 0 1.88 0.22 2.88 0.68 l0 1.38 l-0.72 0 l-0.58 -0.66 c-0.42 -0.48 -1.02 -0.8 -1.68 -0.78 c-0.6 0 -1.72 0.46 -1.72 1.16 c0 0.82 1.94 1.44 3.96 2.82 c1.22 0.82 1.78 1.84 1.78 2.76 c0 1.32 -1.12 2.44 -3.04 2.44 c-2.5 0 -4.16 -0.88 -4.16 -0.88 z M170.217 20 l0 -0.54 c0.56 -0.7 0.86 -1.66 0.86 -2.62 l0 -3.32 c0 -0.98 -0.3 -1.92 -0.86 -2.62 l0 -0.56 l2.76 0 l0 6.52 c0 0.94 0.32 1.9 0.9 2.6 l0 0.54 l-3.66 0 z M171.75700000000003 9.46 c-0.76 0 -1.38 -0.64 -1.38 -1.4 c0 -0.78 0.62 -1.4 1.38 -1.4 c0.78 0 1.4 0.62 1.4 1.4 c0 0.76 -0.62 1.4 -1.4 1.4 z M184.75000000000003 20 l0 -0.54 c0.6 -0.7 0.96 -1.66 0.96 -2.62 l0 -7.66 c0 -0.96 -0.36 -1.9 -0.94 -2.58 l0 -0.6 l2.94 0 l0 10.86 c0 0.94 0.36 1.9 0.98 2.6 l0 0.54 l-3.94 0 z M206.12300000000002 15.32 l-0.02 -2.7 c0 -0.42 -0.22 -1.2 -0.7 -1.78 l0 -0.5 l2.12 0 c-0.14 -1.68 -1.32 -2.54 -2.36 -2.92 c-0.6 -0.22 -1.24 -0.34 -2.02 -0.34 l-0.88 0 c0.2 0.26 0.32 0.58 0.32 0.94 c0 0.74 -0.62 1.38 -1.38 1.38 c-0.78 0 -1.4 -0.64 -1.4 -1.38 c0 -0.8 0.62 -1.4 1.4 -1.4 l1.94 0 c0.82 0 1.54 0.12 2.22 0.36 c1.18 0.44 2.64 1.56 2.64 3.36 l0 6.56 c0.02 1.34 1.24 2.14 2.56 2.14 c1.98 0 2.42 -1.32 2.42 -2.6 l0 -4 c0 -0.58 -0.22 -1.16 -0.68 -1.54 l0 -0.56 l2.26 0 l0 0.56 c-0.54 0.58 -0.74 1.08 -0.74 1.62 l0 4.3 c0 0.78 -0.16 3.28 -3.3 3.28 c-2.5 0 -4.36 -0.74 -4.4 -4.78 z M199.64300000000003 20 l0 -0.6 c0.62 -0.68 0.9 -1.62 0.9 -2.58 l0 -3.3 c0 -0.96 -0.28 -1.9 -0.9 -2.6 l0 -0.58 l2.8 0 l0 6.48 c0 0.98 0.34 1.9 0.9 2.6 l0 0.58 l-3.7 0 z M225.496 20 l0 -0.54 c0.66 -0.7 1.08 -1.66 1.08 -2.62 l0 -3.7 c0 -0.78 -0.32 -1.46 -0.84 -2 l-0.22 -0.24 l0 -0.56 l3.22 0 l0 1.12 c0.64 -0.38 1.38 -0.62 2.14 -0.62 c1.08 0 1.94 0.3 2.54 1 c0.76 -0.5 1.9 -1 3 -1 c2.34 0 3.62 1.42 3.62 4.88 l0 1.12 c0 0.96 0.36 1.92 1.04 2.62 l0 0.54 l-4.26 0 l0 -0.54 c0.68 -0.7 1.06 -1.66 1.06 -2.62 l0 -2.42 c-0.02 -1.56 -1.4 -3.08 -2.8 -2.68 c-0.38 0.12 -0.9 0.46 -1.18 0.8 c0.4 0.74 0.58 1.82 0.58 3.18 l0 1.12 c0 0.96 0.42 1.92 1.06 2.62 l0 0.54 l-4.26 0 l0 -0.54 c0.68 -0.7 1.04 -1.66 1.04 -2.62 l0 -2.42 c0 -1.56 -1.38 -3.1 -2.82 -2.72 c-0.48 0.14 -0.76 0.62 -0.76 1.14 l0 4.02 c0 0.94 0.32 1.9 0.98 2.6 l0 0.54 l-4.22 0 z M276.702 11.3 l0 -2.08 c0 -0.98 -0.4 -1.92 -1.08 -2.64 l0 -0.58 l3.26 0 l0 14.02 c-0.64 -0.28 -1.3 -0.42 -1.96 -0.42 c-1.16 0 -2.14 0.62 -3.34 0.62 c-2.8 0 -5.46 -2.26 -5.46 -4.98 c0 -2.78 2.16 -5.04 5.46 -5.04 c1.18 0 2.24 0.44 3.12 1.1 z M274.42199999999997 19.7 c1.52 0 2.5 -1.52 2.5 -3.36 c0 -3.06 -2.24 -5.56 -4.16 -5.56 c-1.52 0 -2.36 1.44 -2.36 3.2 c0 0.6 0.1 1.26 0.32 1.94 c0.68 2.2 2.16 3.78 3.7 3.78 z M289.835 20 l0 -0.54 l0.9 -0.96 c0.1 -0.12 0.16 -0.22 0.24 -0.4 l4.74 -12.1 l2.16 0 l4.76 12.06 c0.08 0.2 0.2 0.32 0.36 0.46 l1.1 0.94 l0 0.54 l-4.26 0 l0 -0.54 l0.1 -0.06 c0.5 -0.34 0.68 -0.92 0.46 -1.48 l-0.92 -2.34 l-6.58 0 l-1 2.52 c-0.18 0.48 -0.04 1.02 0.34 1.36 l0 0.54 l-2.4 0 z M293.215 14.780000000000001 l5.96 0 l-2.98 -7.6 z M314.44800000000004 20 l0 -0.54 c0.66 -0.7 1.08 -1.66 1.08 -2.62 l0 -3.7 c0 -0.78 -0.32 -1.46 -0.84 -2 l-0.22 -0.24 l0 -0.56 l3.22 0 l0 1.12 c0.64 -0.38 1.38 -0.62 2.14 -0.62 c1.08 0 1.94 0.3 2.54 1 c0.76 -0.5 1.9 -1 3 -1 c2.34 0 3.62 1.42 3.62 4.88 l0 1.12 c0 0.96 0.36 1.92 1.04 2.62 l0 0.54 l-4.26 0 l0 -0.54 c0.68 -0.7 1.06 -1.66 1.06 -2.62 l0 -2.42 c-0.02 -1.56 -1.4 -3.08 -2.8 -2.68 c-0.38 0.12 -0.9 0.46 -1.18 0.8 c0.4 0.74 0.58 1.82 0.58 3.18 l0 1.12 c0 0.96 0.42 1.92 1.06 2.62 l0 0.54 l-4.26 0 l0 -0.54 c0.68 -0.7 1.04 -1.66 1.04 -2.62 l0 -2.42 c0 -1.56 -1.38 -3.1 -2.82 -2.72 c-0.48 0.14 -0.76 0.62 -0.76 1.14 l0 4.02 c0 0.94 0.32 1.9 0.98 2.6 l0 0.54 l-4.22 0 z M340.941 15.32 l-0.02 -2.68 c0 -0.42 -0.12 -0.78 -0.34 -1.12 l-0.36 -0.62 l0 -0.56 l3.42 0 l0 0.56 l-0.36 0.56 c-0.24 0.36 -0.46 0.84 -0.46 1.24 l0.1 4.2 c0.04 1.28 1.2 2.14 2.5 2.14 c1.96 0 2.44 -1.32 2.44 -2.6 l0 -3.96 c0 -0.6 -0.26 -1.16 -0.7 -1.54 l0 -0.6 l2.24 0 l0 0.6 l-0.16 0.18 c-0.4 0.4 -0.58 0.9 -0.58 1.44 l0 4.24 c0 0.8 -0.16 3.3 -3.32 3.3 c-2.5 0 -4.36 -0.74 -4.4 -4.78 z  M360.51399999999995 19.18 l0 -1.42 l0.66 0 l0.78 0.84 c0.52 0.56 1.14 0.78 2.02 0.76 c0.8 0 2.02 -0.3 2.02 -1.04 c0 -0.94 -1.82 -2.08 -2.9 -2.72 c-0.94 -0.54 -2.58 -1.48 -2.58 -2.62 c0 -2.18 2.54 -2.72 3.28 -2.72 c0.94 0 1.88 0.22 2.88 0.68 l0 1.38 l-0.72 0 l-0.58 -0.66 c-0.42 -0.48 -1.02 -0.8 -1.68 -0.78 c-0.6 0 -1.72 0.46 -1.72 1.16 c0 0.82 1.94 1.44 3.96 2.82 c1.22 0.82 1.78 1.84 1.78 2.76 c0 1.32 -1.12 2.44 -3.04 2.44 c-2.5 0 -4.16 -0.88 -4.16 -0.88 z"></path></g><g id="SvgjsG2134" featureKey="nameLeftFeature-0" transform="matrix(2.5174825191497803,0,0,2.5174825191497803,-0.503496466770086,-14.601398886815334)" fill="#07689f"><path d="M0.76 15.74 c-0.38 -0.86 -0.56 -1.8 -0.56 -2.78 c0 -3.96 3.32 -7.16 7.06 -7.16 c2.32 0 4.24 1.14 5.26 2.48 l-0.06 0.08 c-1.12 -1.54 -3.06 -2.22 -4.82 -2.22 c-0.84 0 -1.62 0.14 -2.32 0.44 c-1.52 0.64 -2.6 1.76 -3.18 3.16 s-0.48 2.38 -0.48 2.54 c0 0.74 0.12 1.52 0.34 2.32 c0.9 3.14 3.12 5.08 5.94 5.08 c2.5 0 4.16 -1.42 5.18 -3.68 l0.08 0.02 c-1.02 2.24 -2.8 4.08 -6.12 4.08 c-2.8 0 -5.22 -1.8 -6.32 -4.36 z M17.76 19.96 l-4.02 0 c0.54 -0.08 1.22 -0.44 1.28 -1.26 l0 -3.28 c0 -0.74 0.02 -1.24 0.02 -1.78 l0 -2 c0 -0.88 -0.8 -1.22 -1.3 -1.32 c0.18 0 0.52 0.06 0.88 0.12 s0.6 0.06 0.68 0.06 c0.16 0 0.32 -0.02 0.48 -0.04 c0.46 -0.1 0.9 -0.36 1.14 -0.78 c0.24 -0.4 0.52 -0.94 0.52 -1.42 l0 -0.04 c0 -0.5 -0.4 -1.12 -1.34 -1.28 c0.34 0.18 0.5 0.46 0.5 0.84 c0 0.54 -0.4 0.94 -0.88 0.94 s-0.88 -0.4 -0.88 -0.94 c0 -0.62 0.48 -0.9 1.02 -0.9 l0.06 0 c1.04 0 1.58 0.7 1.64 1.26 l0 0.08 c0 0.44 -0.24 0.98 -0.5 1.56 s-0.56 1.18 -0.56 1.74 l0 7.16 c0.02 0.7 0.56 1.14 1.26 1.28 z"></path></g><g id="SvgjsG2135" featureKey="nameRightFeature-0" transform="matrix(3.6885251998901367,0,0,3.6885251998901367,47.188524455008256,-21.393447005598933)" fill="#07689f"><path d="M0.22 15.440000000000001 l0 -0.2 c0 -3.02 2.56 -4.9 5.04 -4.9 c2.02 0 3.92 1.22 3.92 3.78 c-0.16 0 -0.34 -0.02 -0.5 -0.02 c-1.36 0 -2.98 0.28 -4.3 0.94 s-2.06 1.6 -2.06 2.6 c0 0.1 0 0.22 0.02 0.32 c0.66 1.14 1.72 1.84 3.14 1.84 l0.24 0 c1.58 -0.06 3.1 -1.24 3.32 -2.94 l0.1 0 c-0.16 1.42 -1.4 3.24 -4.02 3.24 c-2.38 0 -4.84 -1.36 -4.9 -4.66 z M1.7 14.120000000000001 c-0.04 0.3 -0.06 0.6 -0.06 0.9 c0 0.66 0.06 1.7 0.6 2.76 l0 -0.18 c0 -0.98 0.68 -1.82 1.78 -2.46 s2.52 -1.02 3.82 -1.1 l0 -0.1 c0 -0.92 -0.36 -1.86 -1 -2.54 s-1.4 -0.88 -1.96 -0.88 c-0.2 0 -0.4 0.02 -0.6 0.06 c-1.56 0.32 -2.34 2.02 -2.56 3.46 z"></path></g>
			</g>
		</svg>
	